<?xml version="1.0" encoding="utf-8"?>
<!-- Generator: Adobe Illustrator 25.0.0, SVG Export Plug-In . SVG Version: 6.00 Build 0)  -->
<svg version="1.1" id="Layer_1" xmlns="http://www.w3.org/2000/svg" xmlns:xlink="http://www.w3.org/1999/xlink" x="0px" y="0px"
	 viewBox="0 0 500 113" style="enable-background:new 0 0 500 113;" xml:space="preserve">
<style type="text/css">
	.st0{fill:#D62629;stroke:#FFFFFF;stroke-width:0.2627;stroke-miterlimit:10;}
	.st1{fill:none;stroke:#D62629;stroke-width:12;stroke-linecap:round;stroke-linejoin:round;stroke-miterlimit:10;}
	.st2{stroke:#000000;stroke-width:0.2627;stroke-miterlimit:10;}
	.st3{fill:#32004A;stroke:#32004A;stroke-miterlimit:10;}
	.st4{fill:#FDB71B;}
	.st5{fill:#32004A;}
	.st6{fill:#32004A;stroke:#32004A;stroke-width:0.3;stroke-miterlimit:10;}
	.st7{fill:#D42729;stroke:#D42729;stroke-width:0.2627;stroke-miterlimit:10;}
	.st8{fill:none;stroke:#D42729;stroke-width:12;stroke-linecap:round;stroke-linejoin:round;stroke-miterlimit:10;}
	.st9{fill:#311049;stroke:#311049;stroke-miterlimit:10;}
	.st10{fill:#FCB619;}
	.st11{fill:#311049;}
</style>
<g>
	<path class="st6" d="M226,45.4c2.9,0,5.3,0.9,7,2.8c1.6,1.9,2.7,5,2.7,9.4c0,9.6-5.2,13.6-9.1,13.6c-0.5,0-0.9-0.1-1.1-0.1
		l-2.9-1.2v10.3c0,5.6,0.3,5.7,4.1,6.4v1.9h-11.5v-1.9c3.6-0.6,3.7-1,3.7-6.5V53.8c0-5.9-0.5-6-3.7-6.5v-1.8L226,45.4L226,45.4z
		 M222.7,67.6c0.5,0.4,1.6,0.9,3,0.9c2.8,0,6.2-2.2,6.2-10.6c0-7.3-3-10.2-6.5-10.2c-1.2,0-2.1,0.3-2.3,0.8c-0.3,0.5-0.5,1.3-0.5,3
		L222.7,67.6L222.7,67.6z"/>
	<path class="st6" d="M250.2,88.4v-1.9c2.4-0.4,2.7-0.7,2.7-5.1V70.6c0-5.5-1.3-8.3-4.1-8.2c-1.6,0-3.2,1.3-4.4,3.4v15.6
		c0,4.3,0.3,4.7,2.8,5.1v1.9h-9.1v-1.9c2.4-0.3,2.9-0.7,2.9-5.1V49.6c0-3.5-0.1-4.4-2.9-4.8v-1.7c2.2-0.3,4.7-1.3,6.2-2.2
		c0,2.6,0,5.5,0,8.2v14.3c1.5-2.4,3.8-4.8,6-4.8c3.4,0,5.8,3.4,5.8,11.3v11.6c0,4.4,0.3,4.7,2.7,5v1.9H250.2L250.2,88.4z"/>
	<path class="st6" d="M273.4,45.4c5.9,0,9.6,1.8,12.1,5.8c2,3.2,3.5,7.8,3.5,14.1c0,7.7-2,14-5.2,17.9c-3.2,3.8-7.2,5.2-12.3,5.2
		h-9.7v-1.9c3.6-0.5,3.7-1,3.7-6.4V53.8c0-5.7-0.5-5.9-3.7-6.5v-1.8L273.4,45.4L273.4,45.4z M269.2,79.6c0,5,1.3,6.4,4.5,6.4
		c7.5,0,11.3-8.1,11.3-19.7c0-7.2-1.5-12.7-4.8-15.9c-1.9-1.9-4.3-2.6-7.1-2.6c-1.9,0-2.9,0.4-3.3,0.9c-0.4,0.4-0.5,1.1-0.5,3.7
		L269.2,79.6L269.2,79.6z"/>
	<path class="st6" d="M302,88.4h-9.6v-1.9c2.6-0.4,2.9-0.7,2.9-5V67.8c0-4.4-0.2-4.6-2.6-5v-1.7c2-0.5,3.9-1.3,5.9-2.7
		c0,2.2,0,5.1,0,7.3c1.5-3.4,3.2-7.1,5.3-7.1c1.5,0,2.4,1.5,2.4,3.2c0,1.5-0.7,3-1.4,3.6c-0.4,0.4-0.8,0.3-1.1-0.1
		c-0.6-1-1.1-1.6-1.9-1.6c-0.9,0-2.4,2.1-3.3,5.4v12.4c0,4.4,0.2,4.7,3.4,5.1L302,88.4L302,88.4z"/>
	<path class="st6" d="M323.1,82.8c-2.7,5.3-5.6,6.4-6.9,6.4c-5.1,0-8.1-6.6-8.1-14.2c0-4.5,1-8.7,2.7-11.6c1.8-3.1,4-4.8,6.2-4.8
		c3.6,0,6.4,5,6.4,10.2c0,1.3-0.2,1.9-0.8,2.2c-0.8,0.3-6.1,0.9-11.1,1.1c-0.1,8.9,3.3,12.5,6.2,12.5c1.7,0,3.3-1.1,4.8-3.4
		L323.1,82.8z M316,61.1c-1.9,0-3.8,2.8-4.4,8.2c2.3,0,4.7,0,7.1-0.2c0.8,0,1-0.3,1-1.3C319.8,64.3,318.3,61.1,316,61.1z"/>
	<path class="st6" d="M339.2,89.2c-0.6,0-1.5-0.5-2-1.3c-0.5-0.9-0.8-1.8-1-3c-1.7,1.8-3.7,4.2-5,4.2c-3,0-5.1-3.9-5.1-8.1
		c0-3.2,1.1-5.4,3.4-6.6c2.5-1.4,5.7-3.1,6.6-4.3v-1.3c0-4.7-1.5-7.4-3.7-7.4c-1,0-1.5,0.7-2,1.5c-0.5,0.9-0.8,2.4-1.1,4.3
		c-0.2,1.1-0.6,1.5-1.2,1.5c-0.8,0-1.8-1.3-1.8-2.9c0-0.9,0.5-1.7,1.4-2.6c1.2-1.4,3.6-3.8,6-4.6c1.2,0,2.5,0.6,3.5,1.8
		c1.5,2,2.1,4.2,2.1,7.7v12.8c0,3,0.7,4,1.5,4c0.5,0,1-0.3,1.5-0.7l0.4,1.9L339.2,89.2z M336.1,72.5c-0.9,0.7-2.9,2.1-3.9,2.8
		c-1.6,1.1-2.5,2.4-2.5,4.8c0,3.5,1.7,5.1,3,5.1c1.1,0,2.6-1.1,3.4-2.4C336.1,79.7,336.1,75.6,336.1,72.5z"/>
	<path class="st6" d="M367.3,88.4v-1.9c2.5-0.4,2.8-0.7,2.8-5.3v-11c0-4.7-1-7.7-3.6-7.7c-1.6,0-3,1.4-4.6,3.4
		c0,0.8,0.1,1.6,0.1,2.8v12.8c0,4.2,0.4,4.5,2.7,4.9v1.9h-8.9v-1.9c2.6-0.4,3-0.7,3-5V70.1c0-4.9-1-7.6-3.5-7.6
		c-1.7,0-3.3,1.8-4.6,3.4v15.5c0,4.4,0.3,4.6,2.7,5v1.9h-8.9v-1.9c2.7-0.4,3-0.7,3-5V67.8c0-4.2-0.2-4.5-2.5-5.2V61
		c2-0.5,3.9-1.3,5.8-2.6c0,1.6,0,3.8,0,5.4c0.9-1.1,1.8-2.2,3.1-3.4c1-1.1,2-1.7,3.3-1.7c2,0,3.7,2,4.5,5.4c1.2-1.4,2.2-2.6,3.3-3.7
		c0.9-0.9,2.1-1.7,3.3-1.7c3.2,0,5.2,3.7,5.2,10.2v12.8c0,4.4,0.2,4.6,2.6,5v1.9L367.3,88.4L367.3,88.4z"/>
	<path class="st6" d="M407.9,47.3c-3.5,0.5-3.8,0.9-3.8,6.4v26.5c0,5.6,0.4,5.8,3.8,6.4v1.9h-11.1v-1.9c3.5-0.7,3.8-0.8,3.8-6.4V67
		h-14.2v13.2c0,5.5,0.3,5.7,3.7,6.4v1.9H379v-1.9c3.4-0.6,3.7-0.8,3.7-6.4V53.7c0-5.6-0.4-5.9-3.7-6.4v-1.8h11v1.8
		c-3.3,0.5-3.7,0.9-3.7,6.4v10.5h14.2V53.7c0-5.5-0.5-5.9-3.8-6.4v-1.8h11.1L407.9,47.3L407.9,47.3z"/>
	<path class="st6" d="M420.5,58.6c5.2,0,9.1,6.3,9.1,14.8c0,10.7-5,15.8-9.1,15.8c-5.7,0-9.2-7.3-9.2-14.7
		C411.3,63.7,416.6,58.6,420.5,58.6z M420,60.8c-2.5,0-4.8,3.9-4.8,11.6c0,8.4,2.3,14.5,5.7,14.5c2.6,0,4.7-3,4.7-12
		C425.7,67.1,423.7,60.8,420,60.8z"/>
	<path class="st6" d="M455.4,88.4v-1.9c2.5-0.4,2.8-0.7,2.8-5.3v-11c0-4.7-1-7.7-3.6-7.7c-1.6,0-3,1.4-4.6,3.4
		c0,0.8,0.1,1.6,0.1,2.8v12.8c0,4.2,0.4,4.5,2.7,4.9v1.9h-8.9v-1.9c2.6-0.4,3-0.7,3-5V70.1c0-4.9-1-7.6-3.5-7.6
		c-1.7,0-3.3,1.8-4.6,3.4v15.5c0,4.4,0.3,4.6,2.7,5v1.9h-8.9v-1.9c2.7-0.4,3-0.7,3-5V67.8c0-4.2-0.2-4.5-2.5-5.2V61
		c2-0.5,3.9-1.3,5.8-2.6c0,1.6,0,3.8,0,5.4c0.9-1.1,1.8-2.2,3.1-3.4c1-1.1,2-1.7,3.3-1.7c2,0,3.7,2,4.5,5.4c1.2-1.4,2.2-2.6,3.3-3.7
		c0.9-0.9,2.1-1.7,3.3-1.7c3.2,0,5.2,3.7,5.2,10.2v12.8c0,4.4,0.2,4.6,2.6,5v1.9L455.4,88.4L455.4,88.4z"/>
	<path class="st6" d="M481.8,82.8c-2.7,5.3-5.6,6.4-6.9,6.4c-5.1,0-8.1-6.6-8.1-14.2c0-4.5,1-8.7,2.7-11.6c1.8-3.1,4-4.8,6.2-4.8
		c3.6,0,6.4,5,6.4,10.2c0,1.3-0.2,1.9-0.8,2.2c-0.8,0.3-6.1,0.9-11.1,1.1c-0.1,8.9,3.3,12.5,6.2,12.5c1.7,0,3.3-1.1,4.8-3.4
		L481.8,82.8z M474.6,61.1c-1.9,0-3.8,2.8-4.4,8.2c2.3,0,4.7,0,7.1-0.2c0.8,0,1-0.3,1-1.3C478.4,64.3,476.9,61.1,474.6,61.1z"/>
</g>
<g>
	<rect x="141.6" y="66.6" class="st7" width="10.9" height="13.4"/>
	<g>
		<rect x="120.7" y="22.9" class="st7" width="10.9" height="68"/>
		<g>
			<rect x="160.3" y="22.9" class="st7" width="10.9" height="13.4"/>
			<path class="st7" d="M160.3,47.2v43.7h10.9V42.4C170.3,42.8,164.6,46,160.3,47.2z"/>
		</g>
		<path class="st8" d="M113.6,42.8c0,0,2.6,2.5,7.2,5.2c6.1,3.7,16.1-7.2,27.9-7.6c6.9-0.3,14.3,12.9,22.5,8.4c3-1.6,6.1-3.6,9.3-6"
			/>
	</g>
	<g>
		<path class="st2" d="M54.2,67c0,0-1.1,1.2-1.6,1.8C53.7,67.8,54.2,67,54.2,67z"/>
		<path class="st2" d="M52.6,68.8c-0.1,0.1-0.2,0.1-0.2,0.2C52.3,69.2,52.4,69.1,52.6,68.8z"/>
		<path class="st9" d="M54.2,66.8c4.2-5,4.5-15.9,4.5-15.9c0.6-9.1-2.5-13.4-2.5-13.4c-0.8-4.3-5.7-5.9-5.7-5.9
			c-4.1-0.3-7.1,4.8-9.2,8.6c-1.8,3.1-5.6,18.5-5.6,18.5C35.2,65,30.1,83,29.3,87.3S26,97.4,26,97.4c-0.2,0.7-0.6,0.6-0.6,0.6
			c-3.3-2.3,2.2-19.8,2.2-19.8l8.8-27.7c1.4-5.3,0.6-8,0.6-8c-1.2-3.8-4.4-2.5-4.4-2.5C28.8,41.8,28,50.5,28,50.5
			c0,1.2-3.2,14.7-3.2,14.7c-3.1,12.8-3.4,21.2-3.4,21.2c-1,8.3,0.6,11.2,0.6,11.2c2.5,4.2,4.6,1.9,4.6,1.9
			c2.8-2.6,6.1-13.4,6.1-13.4l5.5-17c3.1,3.1,7,3.4,7,3.4c3.1-0.3,5.5-2.1,7.1-3.5C52.5,68.8,53.1,68.2,54.2,66.8z M49.7,63.5
			c0,0-5.4,6.1-9.4-0.8c0,0,3.3-19.7,5.9-22.5c0,0,3-4.8,5.8-3.1c0.1,0.1,0.2,0.1,0.2,0.2c2.9,2.1,3,11.4,3,11.4
			S56.6,57.3,49.7,63.5z"/>
	</g>
	<g>
		<path class="st10" d="M64,70.6c0,0,2.1-5.9,4.9-12.8v-9C67.5,54.5,63.9,69.4,64,70.6z"/>
		<path class="st10" d="M75.6,24.1c-0.3,1.2-0.7,2.5-1.1,3.9c0.7-0.1,1.4-0.1,2.2-0.1c5.7,0,10.7,1.2,14.6,4.3
			c6.8,5.2,9.9,14.1,9.9,25.9c0,7.4-1.2,13.9-3.6,19.1c2-0.1,4.6-0.2,7.8-0.5c2.7-5.6,4.3-12.4,4.3-20.2c0-10.3-3.1-17.9-7.3-23.1
			c-5.3-6.4-12.9-9.4-24.9-9.4C77.5,24.1,75.6,24.1,75.6,24.1z"/>
		<path class="st10" d="M61.5,37.7v12.9c0.3-1.1,0.6-2.2,0.9-3.4l5.5-21.5c0,0,0.1-0.6,0.4-1.6H53.8v3C60.4,28,61.5,28.5,61.5,37.7z
			"/>
		<path class="st10" d="M96.1,80.1c-3.9,6.3-9.9,10.1-18.1,10.1c-6.4,0-9.1-2.3-9.1-10.3V67.5l-3.5,10.1c0,0-2,2.5-3.9,2.2v0.9
			c0,8.8-0.3,9.6-7.7,10.4v3h20c10.5,0,18.8-2.4,25.3-8.5c1.8-1.7,3.3-3.6,4.7-5.8C100.7,80.2,98.1,80.3,96.1,80.1z"/>
	</g>
	<path class="st11" d="M70.6,12.5c0,0,0.6-4.9,4.1-5.3c3.5-0.4,4.7,3.3,3.4,7.9c0,0-8.5,31.1-8.6,31.5c0,0-5.6,22.5-5.5,24
		c0,0,11.7-32.1,15.8-34.5c0,0,3-4.2,4.5-2.2c0,0,1.7,0.5,0,9.5c0,0-4,19.1-3.3,21c0,0-3.6,11.9,13.1,12.8c0,0,21.9,0.1,41.2-5.9
		c0,0,19.6-5.4,29.5-4.1c0,0,7.8-0.2,10.8,2.7c0,0,1.9,1.9-0.3,2.5c0,0-18.5-5-31-0.6c0,0-36.2,9.2-48.3,8.2c0,0-15.2,0.1-19.1-11.6
		c0,0-1.9-13.8,4.9-28.6c0,0-1.4-2.3-10.2,20.3l-6.1,17.4c0,0-4.7,5.8-6.6-1.3c0,0-1-12.8,3.5-29.1l5.5-21.5
		C67.9,25.7,70.6,13.8,70.6,12.5z"/>
</g>
</svg>
